<?xml version="1.0" encoding="UTF-8"?>
<svg id="Layer_2" data-name="Layer 2" xmlns="http://www.w3.org/2000/svg" viewBox="0 0 366.03 91.66">
  <defs>
    <style>
      .cls-1 {
        fill: #008768;
        stroke-width: 0px;
      }
    </style>
  </defs>
  <g id="Layer_1-2" data-name="Layer 1">
    <path class="cls-1" d="M360,78.8c2.9-.14,5.37,2.09,5.51,4.99.14,2.9-2.09,5.37-4.99,5.51-2.9.14-5.37-2.09-5.51-4.99,0-.09,0-.18,0-.26-.07-2.83,2.17-5.18,5-5.25M360,78.05c-3.31,0-6,2.69-6,6s2.69,6,6,6,6-2.69,6-6-2.69-6-6-6ZM360.87,84.18c.75-.15,1.3-.8,1.31-1.57,0-1.1-.95-1.56-2.31-1.56h-1.74v6h1v-2.7h.8l1.26,2c.4.63.47.67,1,.67h.51v-.06l-1.83-2.78ZM359.79,84.08h-.68v-2.76h.61c1,0,1.41.38,1.41,1.37s-.28,1.34-1.34,1.34v.05ZM79.23,18h22.15v72h-22.15V18ZM222.67,82.8c-6.51,0-9.61-3.91-9.61-10.59V24h17.59v-6h-17.59V0h-21.28l-1,18h-9.44v6h9.44v47.43c0,12.22,7,20.19,21.34,20.19,10.75,0,17.11-4.39,19.71-10.25l-1-1.14c-2.37,1.72-5.23,2.63-8.16,2.57h0Z"/>
    <path class="cls-1" d="M268.95,16.37c-23.62,0-38.61,16.45-38.61,38s14,37.29,38.12,37.29,38.6-16.44,38.6-37.95-14.66-37.34-38.11-37.34ZM268.79,86.42c-11.9,0-13.54-9.62-13.54-32.62s1.62-32.42,13.35-32.42,13.52,9.78,13.52,32.74c.02,22.52-1.44,32.3-13.33,32.3ZM338.06,30.38l-.49-12.38h-21.5v72h22.18v-57.66c1.33-.42,2.72-.64,4.11-.66,3.95,0,8.55,1.63,22.36,8.15l1.31-.49v-20.2c-2.55-1.85-5.63-2.82-8.78-2.77-6.21,0-13.44,3.91-19.19,14.01h0ZM152.6,81.37l2.55,8.63h18.95v-55.38c0-12.22-9.61-18.25-25.41-18.25-10.59,0-23.62,2.93-32.58,5.87l-1,12.54,1.31.65c16.94-11.4,22-14,27.2-14,6,0,8.47,3.1,8.47,9.61v15c-25.08,5.21-40.4,9-40.4,26.06,0,11.73,7.82,19.55,20.37,19.55,9.63-.02,16.79-4.58,20.54-10.28ZM133.54,68.01c0-11.08,3.75-13.85,18.57-16.94v27.73c-2.68,2.13-6.03,3.23-9.45,3.1-6.35-.04-9.12-3.63-9.12-13.89h0Z"/>
    <circle class="cls-1" cx="56.5" cy="30" r="13.5"/>
    <path class="cls-1" d="M41.64,90l7.05-15.83L23.68,18H0l32.06,72h9.58Z"/>
  </g>
</svg>